<svg version="1.1" xmlns="http://www.w3.org/2000/svg" xmlns:xlink="http://www.w3.org/1999/xlink" width="204.5412" height="116.6179" viewBox="0,0,204.5412,116.6179"><defs><radialGradient cx="124.44468" cy="162.98939" r="1.27468" gradientUnits="userSpaceOnUse" id="color-1"><stop offset="0" stop-color="#000000"/><stop offset="1" stop-color="#585858"/></radialGradient><radialGradient cx="106.71" cy="172.68804" r="0.38795" gradientUnits="userSpaceOnUse" id="color-2"><stop offset="0" stop-color="#ffffff"/><stop offset="1" stop-color="#585858"/></radialGradient><radialGradient cx="270.05535" cy="115.13371" r="1.27468" gradientUnits="userSpaceOnUse" id="color-3"><stop offset="0" stop-color="#000000"/><stop offset="1" stop-color="#585858"/></radialGradient><radialGradient cx="252.32067" cy="124.83236" r="0.38795" gradientUnits="userSpaceOnUse" id="color-4"><stop offset="0" stop-color="#ffffff"/><stop offset="1" stop-color="#585858"/></radialGradient></defs><g transform="translate(-95.65581,-77.54139)"><g data-paper-data="{&quot;isPaintingLayer&quot;:true}" fill-rule="nonzero" stroke-linejoin="miter" stroke-miterlimit="10" stroke-dasharray="" stroke-dashoffset="0" style="mix-blend-mode: normal"><path d="" fill="#000000" stroke="none" stroke-width="0.5" stroke-linecap="butt"/><g stroke="#5f5f5f" stroke-width="1.5"><path d="M125.49767,162.98939c0,0.70399 -0.47144,1.27468 -1.053,1.27468c-0.58155,0 -1.053,-0.57069 -1.053,-1.27468c0,-0.70399 0.47144,-1.27468 1.053,-1.27468c0.58155,0 1.053,0.57069 1.053,1.27468z" fill="url(#color-1)" stroke-linecap="butt"/><path d="M107.09795,172.68804c0,0.06122 -0.17369,0.11084 -0.38795,0.11084c-0.21426,0 -0.38795,-0.04963 -0.38795,-0.11084c0,-0.06122 0.17369,-0.11084 0.38795,-0.11084c0.21426,0 0.38795,0.04963 0.38795,0.11084z" fill="url(#color-2)" stroke-linecap="butt"/><g fill="none" stroke-linecap="round"><g><path d="M127.00897,166.79451l12.14859,20.50637c0,0 -4.62759,-1.67897 -8.136,-0.59848c-3.50841,1.08049 -6.47262,5.09753 -6.47262,5.09753l0.58918,-23.69337l-0.00544,-1.17825l0.08402,-2.12754z"/><path d="M124.88265,181.18099c0,0 1.83705,-3.2783 4.15225,-3.5782c2.31521,-0.29989 5.51105,2.32648 5.51105,2.32648"/><path d="M125.03539,173.59173c0,0 1.04722,-1.85172 2.34571,-2.03306c1.29848,-0.18134 3.07396,1.27618 3.07396,1.27618"/></g><g><path d="M125.25667,167.03675l-1.12739,23.80816c0,0 -2.9422,-3.94677 -6.46679,-4.97326c-3.52459,-1.02649 -8.20919,0.69908 -8.20919,0.69908l13.5193,-19.46669l0.64328,-0.98717l1.23995,-1.7309z"/><path d="M115.57058,177.88441c0,0 3.33694,-1.72825 5.43568,-0.70579c2.09874,1.02245 3.32412,4.97337 3.32412,4.97337"/><path d="M119.87092,171.62923c0,0 1.89285,-0.97092 3.07715,-0.40845c1.1843,0.56247 1.86594,2.75611 1.86594,2.75611"/></g><g><g><path d="M123.04962,166.56185l-13.81273,19.42442c0,0 -0.34321,-4.91078 -2.75437,-7.67894c-2.41116,-2.76816 -7.28542,-3.84736 -7.28542,-3.84736l21.89421,-9.07562l1.07468,-0.48308l1.97861,-0.78651z"/><path d="M109.03793,170.45609c0,0 3.74171,0.34877 4.95525,2.34312c1.21354,1.99435 0.10989,5.98098 0.10989,5.98098"/><path d="M116.03631,167.51618c0,0 2.11736,0.20575 2.80999,1.31895c0.69263,1.1132 0.08093,3.32736 0.08093,3.32736"/></g><g><path d="M122.11718,165.05859l-22.21751,8.63029c0,0 2.41339,-4.29058 1.92139,-7.92849c-0.492,-3.63791 -3.97,-7.21932 -3.97,-7.21932l23.2778,4.45725l1.16327,0.18738l2.08514,0.43093z"/><path d="M108.27235,160.60744c0,0 2.93362,2.3486 2.85072,4.68167c-0.08289,2.33308 -3.19669,5.05621 -3.19669,5.05621"/><path d="M115.73438,161.99965c0,0 1.65547,1.33604 1.62194,2.6467c-0.03352,1.31065 -1.76187,2.82378 -1.76187,2.82378"/></g></g></g><g fill="none" stroke-linecap="round"><g><path d="M125.69856,159.8096l7.53724,-22.61171c0,0 1.76252,4.59642 4.87704,6.53966c3.11452,1.94324 8.09145,1.55178 8.09145,1.55178l-18.28889,15.07448l-0.88674,0.77589l-1.66263,1.3301z"/><path d="M137.96191,151.99281c0,0 -3.68042,0.75927 -5.42354,-0.79369c-1.74312,-1.55296 -1.85194,-5.6881 -1.85194,-5.6881"/><path d="M132.12734,156.84852c0,0 -2.08514,0.42163 -3.07269,-0.44074c-0.98756,-0.86237 -1.04921,-3.15865 -1.04921,-3.15865"/></g><g><path d="M127.02938,160.97498l18.72816,-14.74299c0,0 -1.05502,4.80837 0.47804,8.14396c1.53306,3.33559 5.90543,5.74504 5.90543,5.74504l-23.56466,2.53577l-1.16727,0.16054l-2.12008,0.19686z"/><path d="M141.57059,161.18843c0,0 -3.49165,-1.38938 -4.09379,-3.64494c-0.60214,-2.25556 1.58056,-5.7694 1.58056,-5.7694"/><path d="M134.0273,162.03634c0,0 -1.97349,-0.79428 -2.32423,-2.05758c-0.35074,-1.2633 0.86031,-3.21524 0.86031,-3.21524"/></g><g><g><path d="M128.11623,162.95373l23.72492,-2.28637c0,0 -3.48583,3.47599 -3.99811,7.1111c-0.51229,3.6351 1.86499,8.02504 1.86499,8.02504l-21.19881,-10.59876l-1.06896,-0.49562l-1.89033,-0.97988z"/><path d="M140.2367,170.99028c0,0 -2.18737,-3.05572 -1.47531,-5.27903c0.71205,-2.22331 4.44731,-4.0007 4.44731,-4.0007"/><path d="M133.43119,167.62795c0,0 -1.23144,-1.73468 -0.84399,-2.9872c0.38746,-1.25253 2.46118,-2.24064 2.46118,-2.24064"/></g><g><path d="M127.59111,164.64295l21.07408,11.13476c0,0 -4.82283,0.98684 -7.2494,3.7415c-2.42657,2.75467 -2.85456,7.72859 -2.85456,7.72859l-11.87952,-20.50854l-0.62038,-1.00172l-1.04019,-1.85782z"/><path d="M133.29643,178.01985c0,0 -0.14696,-3.75505 1.67023,-5.22064c1.81719,-1.46558 5.91443,-0.89647 5.91443,-0.89647"/><path d="M129.46061,171.46953c0,0 -0.07484,-2.12602 0.93746,-2.9592c1.0123,-0.83318 3.28773,-0.51835 3.28773,-0.51835"/></g></g></g><g fill="none" stroke-linecap="round"><g><path d="M121.59568,162.66058l-23.56227,-3.59428c0,0 4.23103,-2.51632 5.61808,-5.91523c1.38704,-3.3989 0.15741,-8.2374 0.15741,-8.2374l17.95711,15.46821l0.915,0.74234l1.59274,1.41303z"/><path d="M111.8128,151.90012c0,0 1.37229,3.49841 0.13737,5.47958c-1.23493,1.98118 -5.29174,2.78955 -5.29174,2.78955"/><path d="M117.58747,156.82693c0,0 0.76906,1.98346 0.08662,3.10293c-0.68244,1.11947 -2.93502,1.56957 -2.93502,1.56957"/></g><g><g><path d="M122.35897,160.20742l-17.88459,-15.75566c0,0 4.91986,0.16874 7.9235,-1.94185c3.00364,-2.11058 4.5833,-6.84638 4.5833,-6.84638l6.75234,22.71847l0.36883,1.11905l0.57673,2.04961z"/><path d="M119.94121,145.86703c0,0 -0.73554,3.68524 -2.84515,4.68506c-2.10961,0.99982 -5.96004,-0.51196 -5.96004,-0.51196"/><path d="M122.13829,153.13292c0,0 -0.42458,2.08454 -1.6037,2.65779c-1.17912,0.57325 -3.31777,-0.26513 -3.31777,-0.26513"/></g><g><path d="M123.95095,159.43617l-6.27584,-22.99377c0,0 4.01669,2.846 7.68602,2.73454c3.66933,-0.11146 7.59264,-3.19864 7.59264,-3.19864l-6.85104,22.6889l-0.3072,1.13752l-0.64519,2.02909z"/><path d="M129.81612,146.12858c0,0 -2.64061,2.67379 -4.95246,2.34901c-2.31185,-0.32478 -4.69682,-3.7046 -4.69682,-3.7046"/><path d="M127.65634,153.40564c0,0 -1.50077,1.50773 -2.80085,1.33825c-1.30008,-0.16948 -2.6255,-2.04564 -2.6255,-2.04564"/></g></g></g></g><g stroke="#5f5f5f" stroke-width="1.5"><path d="M271.10834,115.13371c0,0.70399 -0.47144,1.27468 -1.053,1.27468c-0.58155,0 -1.053,-0.57069 -1.053,-1.27468c0,-0.70399 0.47144,-1.27468 1.053,-1.27468c0.58155,0 1.053,0.57069 1.053,1.27468z" fill="url(#color-3)" stroke-linecap="butt"/><path d="M252.70862,124.83236c0,0.06122 -0.17369,0.11084 -0.38795,0.11084c-0.21426,0 -0.38795,-0.04963 -0.38795,-0.11084c0,-0.06122 0.17369,-0.11084 0.38795,-0.11084c0.21426,0 0.38795,0.04963 0.38795,0.11084z" fill="url(#color-4)" stroke-linecap="butt"/><g fill="none" stroke-linecap="round"><g><path d="M272.61964,118.93883l12.14859,20.50637c0,0 -4.62759,-1.67897 -8.136,-0.59848c-3.50841,1.08049 -6.47262,5.09753 -6.47262,5.09753l0.58918,-23.69337l-0.00544,-1.17825l0.08402,-2.12754z"/><path d="M270.49332,133.32531c0,0 1.83705,-3.2783 4.15225,-3.5782c2.31521,-0.29989 5.51105,2.32648 5.51105,2.32648"/><path d="M270.64606,125.73604c0,0 1.04722,-1.85172 2.34571,-2.03306c1.29848,-0.18134 3.07396,1.27618 3.07396,1.27618"/></g><g><path d="M270.86734,119.18106l-1.12739,23.80816c0,0 -2.9422,-3.94677 -6.46679,-4.97326c-3.52459,-1.02649 -8.20919,0.69908 -8.20919,0.69908l13.5193,-19.46669l0.64328,-0.98717l1.23995,-1.7309z"/><path d="M261.18125,130.02873c0,0 3.33694,-1.72825 5.43568,-0.70579c2.09874,1.02245 3.32412,4.97337 3.32412,4.97337"/><path d="M265.48159,123.77355c0,0 1.89285,-0.97092 3.07715,-0.40845c1.1843,0.56247 1.86594,2.75611 1.86594,2.75611"/></g><g><g><path d="M268.66029,118.70617l-13.81273,19.42442c0,0 -0.34321,-4.91078 -2.75437,-7.67894c-2.41116,-2.76816 -7.28542,-3.84736 -7.28542,-3.84736l21.89421,-9.07562l1.07468,-0.48308l1.97861,-0.78651z"/><path d="M254.6486,122.60041c0,0 3.74171,0.34877 4.95525,2.34312c1.21354,1.99435 0.10989,5.98098 0.10989,5.98098"/><path d="M261.64698,119.6605c0,0 2.11736,0.20575 2.80999,1.31895c0.69263,1.1132 0.08093,3.32736 0.08093,3.32736"/></g><g><path d="M267.72785,117.2029l-22.21751,8.63029c0,0 2.41339,-4.29058 1.92139,-7.92849c-0.492,-3.63791 -3.97,-7.21932 -3.97,-7.21932l23.2778,4.45725l1.16327,0.18738l2.08514,0.43093z"/><path d="M253.88302,112.75176c0,0 2.93362,2.3486 2.85072,4.68167c-0.08289,2.33308 -3.19669,5.05621 -3.19669,5.05621"/><path d="M261.34505,114.14397c0,0 1.65547,1.33604 1.62194,2.6467c-0.03352,1.31065 -1.76187,2.82378 -1.76187,2.82378"/></g></g></g><g fill="none" stroke-linecap="round"><g><path d="M271.30923,111.95392l7.53724,-22.61171c0,0 1.76252,4.59642 4.87704,6.53966c3.11452,1.94324 8.09145,1.55178 8.09145,1.55178l-18.28889,15.07448l-0.88674,0.77589l-1.66263,1.3301z"/><path d="M283.57258,104.13713c0,0 -3.68042,0.75927 -5.42354,-0.79369c-1.74312,-1.55296 -1.85194,-5.6881 -1.85194,-5.6881"/><path d="M277.73801,108.99284c0,0 -2.08514,0.42163 -3.07269,-0.44074c-0.98756,-0.86237 -1.04921,-3.15865 -1.04921,-3.15865"/></g><g><path d="M272.64005,113.1193l18.72816,-14.74299c0,0 -1.05502,4.80837 0.47804,8.14396c1.53306,3.33559 5.90543,5.74504 5.90543,5.74504l-23.56466,2.53577l-1.16727,0.16054l-2.12008,0.19686z"/><path d="M287.18126,113.33274c0,0 -3.49165,-1.38938 -4.09379,-3.64494c-0.60214,-2.25556 1.58056,-5.7694 1.58056,-5.7694"/><path d="M279.63797,114.18066c0,0 -1.97349,-0.79428 -2.32423,-2.05758c-0.35074,-1.2633 0.86031,-3.21524 0.86031,-3.21524"/></g><g><g><path d="M273.7269,115.09805l23.72492,-2.28637c0,0 -3.48583,3.47599 -3.99811,7.1111c-0.51229,3.6351 1.86499,8.02504 1.86499,8.02504l-21.19881,-10.59876l-1.06896,-0.49562l-1.89033,-0.97988z"/><path d="M285.84737,123.13459c0,0 -2.18737,-3.05572 -1.47531,-5.27903c0.71205,-2.22331 4.44731,-4.0007 4.44731,-4.0007"/><path d="M279.04186,119.77227c0,0 -1.23144,-1.73468 -0.84399,-2.9872c0.38746,-1.25253 2.46118,-2.24064 2.46118,-2.24064"/></g><g><path d="M273.20178,116.78726l21.07408,11.13476c0,0 -4.82283,0.98684 -7.2494,3.7415c-2.42657,2.75467 -2.85456,7.72859 -2.85456,7.72859l-11.87952,-20.50854l-0.62038,-1.00172l-1.04019,-1.85782z"/><path d="M278.9071,130.16417c0,0 -0.14696,-3.75505 1.67023,-5.22064c1.81719,-1.46558 5.91443,-0.89647 5.91443,-0.89647"/><path d="M275.07128,123.61385c0,0 -0.07484,-2.12602 0.93746,-2.9592c1.0123,-0.83318 3.28773,-0.51835 3.28773,-0.51835"/></g></g></g><g fill="none" stroke-linecap="round"><g><path d="M267.20635,114.80489l-23.56227,-3.59428c0,0 4.23103,-2.51632 5.61808,-5.91523c1.38704,-3.3989 0.15741,-8.2374 0.15741,-8.2374l17.95711,15.46821l0.915,0.74234l1.59274,1.41303z"/><path d="M257.42347,104.04444c0,0 1.37229,3.49841 0.13737,5.47958c-1.23493,1.98118 -5.29174,2.78955 -5.29174,2.78955"/><path d="M263.19814,108.97125c0,0 0.76906,1.98346 0.08662,3.10293c-0.68244,1.11947 -2.93502,1.56957 -2.93502,1.56957"/></g><g><g><path d="M267.96964,112.35173l-17.88459,-15.75566c0,0 4.91986,0.16874 7.9235,-1.94185c3.00364,-2.11058 4.5833,-6.84638 4.5833,-6.84638l6.75234,22.71847l0.36883,1.11905l0.57673,2.04961z"/><path d="M265.55188,98.01135c0,0 -0.73554,3.68524 -2.84515,4.68506c-2.10961,0.99982 -5.96004,-0.51196 -5.96004,-0.51196"/><path d="M267.74896,105.27724c0,0 -0.42458,2.08454 -1.6037,2.65779c-1.17912,0.57325 -3.31777,-0.26513 -3.31777,-0.26513"/></g><g><path d="M269.56162,111.58049l-6.27584,-22.99377c0,0 4.01669,2.846 7.68602,2.73454c3.66933,-0.11146 7.59264,-3.19864 7.59264,-3.19864l-6.85104,22.6889l-0.3072,1.13752l-0.64519,2.02909z"/><path d="M275.42679,98.2729c0,0 -2.64061,2.67379 -4.95246,2.34901c-2.31185,-0.32478 -4.69682,-3.7046 -4.69682,-3.7046"/><path d="M273.26701,105.54996c0,0 -1.50077,1.50773 -2.80085,1.33825c-1.30008,-0.16948 -2.6255,-2.04564 -2.6255,-2.04564"/></g></g></g></g><path d="M215.84923,169.44815c0,0 -0.4433,-2.83837 -4.21578,-3.06531c-3.77248,-0.22694 -4.16986,2.62993 -8.4501,2.30338c-4.28025,-0.32655 -4.27097,-3.27391 -4.27097,-3.27391" fill="none" stroke="#00f2ff" stroke-width="2.5" stroke-linecap="round"/><g data-paper-data="{&quot;index&quot;:null}"><path d="M208.59893,158.64916c-1.88132,0.24129 -3.56782,-0.82132 -3.76689,-2.37341c-0.19906,-1.5521 1.16468,-3.00592 3.04601,-3.24722c1.88132,-0.24129 3.56781,0.82133 3.76687,2.37342c0.19906,1.5521 -1.16467,3.00591 -3.04599,3.2472z" data-paper-data="{&quot;index&quot;:null}" fill="#00f2ff" stroke="none" stroke-width="0" stroke-linecap="butt"/><path d="M202.09459,151.21917l-6.48655,-5.06976" data-paper-data="{&quot;index&quot;:null}" fill="none" stroke="#00f2ff" stroke-width="2" stroke-linecap="round"/><path d="M193.87458,148.45855l6.98443,4.35838" data-paper-data="{&quot;index&quot;:null}" fill="none" stroke="#00f2ff" stroke-width="2" stroke-linecap="round"/><path d="M207.99157,154.34273l4.16392,7.10208" data-paper-data="{&quot;index&quot;:null}" fill="none" stroke="#00f2ff" stroke-width="2" stroke-linecap="round"/><path d="M201.81015,149.53927c0,0 8.19455,4.82272 7.84764,5.80283c-0.34691,0.98011 -9.13067,-2.17794 -9.13067,-2.17794z" data-paper-data="{&quot;index&quot;:null}" fill="#00f2ff" stroke="none" stroke-width="0" stroke-linecap="butt"/><path d="M200.58071,148.94663l6.99049,3.89012l-2.17931,3.91618l-6.99049,-3.89013z" data-paper-data="{&quot;index&quot;:null}" fill="#00f2ff" stroke="none" stroke-width="0" stroke-linecap="butt"/><path d="M205.42497,156.26039l3.62749,7.39047" data-paper-data="{&quot;index&quot;:null}" fill="none" stroke="#00f2ff" stroke-width="2" stroke-linecap="round"/></g><g data-paper-data="{&quot;index&quot;:null}"><path d="M244.10661,157.08978c0.86139,-0.95246 2.43666,-0.8508 3.51844,0.22706c1.08179,1.07787 1.26045,2.72376 0.39906,3.67622c-0.86139,0.95246 -2.43666,0.8508 -3.51845,-0.22707c-1.08179,-1.07787 -1.26045,-2.72376 -0.39906,-3.67621z" data-paper-data="{&quot;index&quot;:null}" fill="#4e00ff" stroke="none" stroke-width="0" stroke-linecap="butt"/><path d="M251.80582,169.57778c0,0 -5.35603,-7.40825 -4.32962,-8.82129c1.02642,-1.41305 8.12576,3.59523 8.12576,3.59523z" data-paper-data="{&quot;index&quot;:null}" fill="#4e00ff" stroke="none" stroke-width="0" stroke-linecap="butt"/><path d="M252.44138,165.12907l6.8804,2.72957" data-paper-data="{&quot;index&quot;:null}" fill="#ffa000" stroke="#4e00ff" stroke-width="2" stroke-linecap="round"/><path d="M251.96726,166.28551l6.57628,3.43995" data-paper-data="{&quot;index&quot;:null}" fill="#ffa000" stroke="#4e00ff" stroke-width="2" stroke-linecap="round"/><path d="M252.04447,167.28848l-4.91462,-5.71962" data-paper-data="{&quot;index&quot;:null}" fill="#ffa000" stroke="#4e00ff" stroke-width="2" stroke-linecap="round"/><path d="M255.86219,162.74421l-7.21305,-1.58839" data-paper-data="{&quot;index&quot;:null}" fill="#ffa000" stroke="#4e00ff" stroke-width="2" stroke-linecap="round"/><path d="M242.12439,159.91765c0.06909,0.0163 0.10649,-0.01319 0.12545,-0.07135c-0.05723,0.01645 -0.11635,0.03216 -0.17641,0.04634c0.01453,0.01173 0.0313,0.02036 0.05097,0.025zM240.95328,158.87943c0.27132,-1.21917 4.25051,-0.92755 5.00284,-0.92278c0,0 0.44905,0.00339 0.43838,0.47524c-0.01068,0.47186 -0.45972,0.46848 -0.45972,0.46848c-0.32532,-0.00281 -1.15059,0.09114 -1.94562,0.16298c-0.04679,0.13434 -0.15032,0.24599 -0.28979,0.29342l-0.66677,0.22672c-0.6843,0.90271 -1.3188,1.72511 -1.75986,0.32832c-0.29067,-0.10195 -0.4625,-0.38961 -0.31944,-1.0324z" data-paper-data="{&quot;index&quot;:null}" fill="#4e00ff" stroke="none" stroke-width="0.5" stroke-linecap="butt"/><path d="M257.67054,159.41226l-2.88505,-0.87981l3.27777,-0.90799l-2.77555,-1.15938" fill="none" stroke="#4e00ff" stroke-width="0.5" stroke-linecap="round"/><path d="M262.86057,159.11917l-2.13243,-0.65029l2.42269,-0.67112l-2.05149,-0.85693" fill="none" stroke="#4e00ff" stroke-width="0.5" stroke-linecap="round"/><path d="M268.38047,157.98391l-1.85467,-0.5656l2.10713,-0.5837l-1.78427,-0.74531" fill="none" stroke="#4e00ff" stroke-width="0.5" stroke-linecap="round"/></g><path d="M112.8752,90.69455c0,0 8.2915,29.31028 12.41612,29.40659c3.69779,0.08634 8.3027,-23.8939 9.14872,-22.8718c0.32398,0.39142 12.23566,23.70825 12.77704,23.36859c1.78467,-1.11971 8.78779,-28.26968 8.78779,-28.26968" fill="none" stroke="#ff0000" stroke-width="3.5" stroke-linecap="round"/><g><path d="M186.22514,115.94315c-0.01032,0.26924 -0.16419,0.48193 -0.34368,0.47505c-0.17949,-0.00688 -0.31663,-0.23073 -0.30631,-0.49996c0.01032,-0.26924 0.16419,-0.48193 0.34368,-0.47505c0.17949,0.00688 0.31663,0.23073 0.30631,0.49996z" fill="#ff0000" stroke="none" stroke-width="0" stroke-linecap="butt"/><path d="M185.25844,127.17863l-19.90672,-2.32106l1.99037,-31.60518l20.64487,3.38809" fill="none" stroke="#ffa000" stroke-width="3.5" stroke-linecap="round"/><path d="M166.00763,107.74356l19.31854,4.11631" fill="none" stroke="#ffa000" stroke-width="3.5" stroke-linecap="round"/></g><g><path d="M159.43584,125.37785c0,2.05613 -1.37513,3.72296 -3.07144,3.72296c-1.69631,0 -3.07144,-1.66682 -3.07144,-3.72296c0,-2.05613 1.37513,-3.72296 3.07144,-3.72296c1.69631,0 3.07144,1.66682 3.07144,3.72296z" data-paper-data="{&quot;index&quot;:null}" fill="#ffa000" stroke="none" stroke-width="0" stroke-linecap="butt"/><path d="M152.57098,139.3749c0,0 1.93479,-11.62617 4.21661,-11.37469c2.28182,0.25147 4.22259,12.30475 4.22259,12.30475z" data-paper-data="{&quot;index&quot;:null}" fill="#ffa000" stroke="none" stroke-width="0" stroke-linecap="butt"/><path d="M152.38419,146.2648l3.86514,-9.3469" data-paper-data="{&quot;index&quot;:null}" fill="#ffa000" stroke="#ffa000" stroke-width="2" stroke-linecap="round"/><path d="M155.25086,147.49337l3.86514,-9.3469" data-paper-data="{&quot;index&quot;:null}" fill="#ffa000" stroke="#ffa000" stroke-width="2" stroke-linecap="round"/><path d="M164.78642,127.33555l-7.83451,6.39721" data-paper-data="{&quot;index&quot;:null}" fill="#ffa000" stroke="#ffa000" stroke-width="2" stroke-linecap="round"/><path d="M154.56978,131.22841l-6.6489,7.62106" data-paper-data="{&quot;index&quot;:null}" fill="#ffa000" stroke="#ffa000" stroke-width="2" stroke-linecap="round"/><path d="M154.35941,126.19921c0,0 -3.13975,0.28024 -3.41702,1.16565c-0.27727,0.88541 2.87703,0.79814 2.48612,1.80704c-0.39091,1.00891 -3.64791,1.19146 -3.64791,1.19146" fill="none" stroke="#ffa000" stroke-width="3.5" stroke-linecap="round"/></g><g><path d="M146.28795,81.76074c0,2.33028 -1.55849,4.21936 -3.48098,4.21936c-1.92249,0 -3.48098,-1.88907 -3.48098,-4.21936c0,-2.33028 1.55849,-4.21935 3.48098,-4.21935c1.92249,0 3.48098,1.88906 3.48098,4.21935z" fill="#ff0000" stroke="none" stroke-width="0" stroke-linecap="butt"/><path d="M138.82678,103.14408l3.86514,-9.3469" fill="none" stroke="#ff0000" stroke-width="2" stroke-linecap="round"/><path d="M145.5586,94.61623l-3.86515,9.34689" fill="none" stroke="#ff0000" stroke-width="2" stroke-linecap="round"/><path d="M151.22902,84.21483l-7.83451,6.39721" fill="none" stroke="#ff0000" stroke-width="2" stroke-linecap="round"/><path d="M136.41109,83.19338l6.6489,7.62107" fill="none" stroke="#ff0000" stroke-width="2" stroke-linecap="round"/><path d="M139.4231,95.84466c0,0 1.747,-11.62616 3.80737,-11.37469c2.06037,0.25147 3.81278,12.30475 3.81278,12.30475z" fill="#ff0000" stroke="none" stroke-width="0" stroke-linecap="butt"/><path d="M140.42665,98.22226v-9.82861h5.50614v9.82861z" fill="#ff0000" stroke="none" stroke-width="0" stroke-linecap="butt"/></g><g><path d="M206.46012,114.52238c1.53642,-1.15556 3.91744,-0.58263 5.31813,1.27971c1.40069,1.86233 1.29066,4.30884 -0.24576,5.46441c-1.53642,1.15556 -3.91744,0.58262 -5.31813,-1.27971c-1.40069,-1.86233 -1.29066,-4.30883 0.24578,-5.4644z" data-paper-data="{&quot;index&quot;:null}" fill="#e5e800" stroke="none" stroke-width="0" stroke-linecap="butt"/><path d="M218.94298,120.85856l10.02254,1.36107" data-paper-data="{&quot;index&quot;:null}" fill="none" stroke="#e5e800" stroke-width="2" stroke-linecap="round"/><path d="M218.59641,123.3157l9.82344,2.40909" data-paper-data="{&quot;index&quot;:null}" fill="none" stroke="#e5e800" stroke-width="2" stroke-linecap="round"/><path d="M206.03789,123.4753l10.07179,-0.92893" data-paper-data="{&quot;index&quot;:null}" fill="none" stroke="#e5e800" stroke-width="2" stroke-linecap="round"/><path d="M219.18942,125.42415c0,0 -10.30994,-5.02152 -9.74493,-6.16712c0.56501,-1.1456 11.83458,1.93022 11.83458,1.93022z" data-paper-data="{&quot;index&quot;:null}" fill="#e5e800" stroke="none" stroke-width="0" stroke-linecap="butt"/><path d="M220.66316,125.51758l-9.41661,-2.8159l1.57752,-5.27532l9.41661,2.81591z" data-paper-data="{&quot;index&quot;:null}" fill="#e5e800" stroke="none" stroke-width="0" stroke-linecap="butt"/><path d="M202.35216,118.97052l10.07179,-0.92894" data-paper-data="{&quot;index&quot;:null}" fill="none" stroke="#e5e800" stroke-width="2" stroke-linecap="round"/></g><path d="M205.99608,94.28869l0.65348,34.96116" fill="none" stroke="none" stroke-width="0" stroke-linecap="round"/><path d="M200.4415,90.04107v33.98095" fill="none" stroke="none" stroke-width="0" stroke-linecap="round"/><path d="M200.86856,87.74784l-1.73402,41.07484c0,0 34.42514,4.3675 35.2229,-4.47887c0.79776,-8.84638 -33.19988,-17.95431 -33.19988,-17.95431c0,0 21.80754,2.44715 21.67017,-6.41344c-0.13737,-8.86059 -21.95918,-12.22822 -21.95918,-12.22822z" fill="none" stroke="#e5e800" stroke-width="3.5" stroke-linecap="round"/><path d="M151.10247,187.55424l15.39319,-31.18108l10.45948,33.35192" fill="none" stroke="#00f314" stroke-width="3.5" stroke-linecap="round"/><path d="M156.62823,176.10203l26.83942,0.0299" fill="none" stroke="#00f314" stroke-width="3.5" stroke-linecap="round"/><g data-paper-data="{&quot;index&quot;:null}"><path d="M170.99649,159.8233c-0.93858,-1.38563 -0.77274,-3.13661 0.3704,-3.91094c1.14314,-0.77433 2.83071,-0.27877 3.76929,1.10686c0.93858,1.38563 0.77274,3.13663 -0.3704,3.91096c-1.14314,0.77433 -2.83071,0.27876 -3.76929,-1.10686z" data-paper-data="{&quot;index&quot;:null}" fill="#00f314" stroke="none" stroke-width="0" stroke-linecap="butt"/><path d="M176.74942,170.60134c0,0 -4.19418,-9.00862 -2.77124,-10.2197c1.42294,-1.21107 8.03388,5.74063 8.03388,5.74063z" data-paper-data="{&quot;index&quot;:null}" fill="#00f314" stroke="none" stroke-width="0" stroke-linecap="butt"/><path d="M185.28303,170.68012l-6.87139,-4.53453" data-paper-data="{&quot;index&quot;:null}" fill="#ffa000" stroke="#00f314" stroke-width="2" stroke-linecap="round"/><path d="M177.71348,167.82633l1.66192,8.06322" data-paper-data="{&quot;index&quot;:null}" fill="#ffa000" stroke="#00f314" stroke-width="2" stroke-linecap="round"/><path d="M168.28436,163.58503l8.19987,0.73481" data-paper-data="{&quot;index&quot;:null}" fill="#ffa000" stroke="#00f314" stroke-width="2" stroke-linecap="round"/><path d="M178.64413,164.95345l1.00185,-8.17092" data-paper-data="{&quot;index&quot;:null}" fill="#ffa000" stroke="#00f314" stroke-width="2" stroke-linecap="round"/><path d="M168.35268,158.18633c0.07143,0.03402 0.11848,0.01269 0.15175,-0.04292c-0.06572,0.00287 -0.13332,0.00454 -0.20161,0.00437c0.0132,0.01576 0.02953,0.02886 0.04986,0.03855zM167.42957,157.96935c-0.29323,-0.17771 -0.41684,-0.51854 -0.12108,-1.14968c0.56098,-1.19705 4.81624,0.09086 5.63178,0.28215c0,0 0.48667,0.11472 0.37194,0.60138c-0.11472,0.48666 -0.60138,0.37194 -0.60138,0.37194c-0.35249,-0.08348 -1.26877,-0.19045 -2.1474,-0.31285c-0.08015,0.12772 -0.21692,0.21787 -0.37868,0.23251l-0.77327,0.06997c-0.94005,0.7666 -1.80849,1.46227 -1.98191,-0.0954z" fill="#00f314" stroke="none" stroke-width="0.5" stroke-linecap="butt"/></g><path d="M188.91408,189.12105c0,0 4.99395,-30.1791 7.03198,-30.90373c1.46129,-0.51957 10.71429,29.8518 11.74274,29.47123c1.67099,-0.61835 10.80958,-28.79352 10.80958,-28.79352" fill="none" stroke="#00f2ff" stroke-width="3.5" stroke-linecap="round"/><path d="M223.39835,184.46294l15.3932,-31.18108l10.45948,33.35192" fill="none" stroke="#4e00ff" stroke-width="3.5" stroke-linecap="round"/><path d="M230.30556,172.024l26.83942,0.0299" fill="none" stroke="#4e00ff" stroke-width="3.5" stroke-linecap="round"/><g fill="none" stroke="#8b00ff" stroke-width="0.5"><path d="M284.18779,154.31499c0,2.43655 -1.86548,4.41176 -4.16667,4.41176c-2.30119,0 -4.16667,-1.97521 -4.16667,-4.41176c0,-2.43655 1.86548,-4.41176 4.16667,-4.41176c2.30119,0 4.16667,1.97521 4.16667,4.41176z" stroke-linecap="butt"/><path d="M282.4444,154.00546c0,2.3445 -1.10211,4.2451 -2.46164,4.2451c-1.35953,0 -2.46164,-1.9006 -2.46164,-4.2451c0,-2.3445 1.10211,-4.2451 2.46164,-4.2451c1.35953,0 2.46164,1.9006 2.46164,4.2451z" stroke-linecap="butt"/><path d="M283.21611,151.55612c-0.26768,0.82111 -1.836,1.30131 -3.65679,1.08558c-1.2306,-0.1458 -2.28085,-0.57446 -2.85879,-1.10345" stroke-linecap="butt"/><path d="M280.00918,156.04367c1.95298,-0.01915 3.55364,0.52386 3.57521,1.21284c0.02157,0.68898 -1.54414,1.26303 -3.49711,1.28218c-1.95298,0.01915 -3.55365,-0.52386 -3.57522,-1.21284c-0.02157,-0.68898 1.54414,-1.26303 3.49712,-1.28218z" stroke-linecap="butt"/><path d="M279.93779,150.46513l0.14286,8.14286" stroke-linecap="round"/><path d="M283.93779,154.46512l-8.14286,-0.28571" stroke-linecap="round"/></g><g fill="none" stroke="#8b00ff" stroke-width="3.5" stroke-linecap="round"><path d="M272.47188,150.55137l0.36146,33.9772"/><path d="M291.26778,155.43107l-18.07298,13.19328l14.81984,16.26568"/></g></g></g></svg>