<svg version="1.1" xmlns="http://www.w3.org/2000/svg" xmlns:xlink="http://www.w3.org/1999/xlink" width="251.8282" height="185.80279" viewBox="0,0,251.8282,185.80279"><defs><radialGradient cx="104.10322" cy="184.19755" r="1.27468" gradientUnits="userSpaceOnUse" id="color-1"><stop offset="0" stop-color="#000000"/><stop offset="1" stop-color="#585858"/></radialGradient><radialGradient cx="86.36854" cy="193.8962" r="0.38795" gradientUnits="userSpaceOnUse" id="color-2"><stop offset="0" stop-color="#ffffff"/><stop offset="1" stop-color="#585858"/></radialGradient><radialGradient cx="234.43655" cy="132.19755" r="1.27468" gradientUnits="userSpaceOnUse" id="color-3"><stop offset="0" stop-color="#000000"/><stop offset="1" stop-color="#585858"/></radialGradient><radialGradient cx="216.70187" cy="141.8962" r="0.38795" gradientUnits="userSpaceOnUse" id="color-4"><stop offset="0" stop-color="#ffffff"/><stop offset="1" stop-color="#585858"/></radialGradient></defs><g transform="translate(-12.75,-29.56465)"><g data-paper-data="{&quot;isPaintingLayer&quot;:true}" fill-rule="nonzero" stroke-linejoin="miter" stroke-miterlimit="10" stroke-dasharray="" stroke-dashoffset="0" style="mix-blend-mode: normal"><path d="" fill="#000000" stroke="none" stroke-width="0.5" stroke-linecap="butt"/><g stroke="#5f5f5f" stroke-width="1.5"><path d="M105.15621,184.19755c0,0.70399 -0.47144,1.27468 -1.053,1.27468c-0.58155,0 -1.053,-0.57069 -1.053,-1.27468c0,-0.70399 0.47144,-1.27468 1.053,-1.27468c0.58155,0 1.053,0.57069 1.053,1.27468z" fill="url(#color-1)" stroke-linecap="butt"/><path d="M86.75649,193.8962c0,0.06122 -0.17369,0.11084 -0.38795,0.11084c-0.21426,0 -0.38795,-0.04963 -0.38795,-0.11084c0,-0.06122 0.17369,-0.11084 0.38795,-0.11084c0.21426,0 0.38795,0.04963 0.38795,0.11084z" fill="url(#color-2)" stroke-linecap="butt"/><g fill="none" stroke-linecap="round"><g><path d="M106.66751,188.00267l12.14859,20.50637c0,0 -4.62759,-1.67897 -8.136,-0.59848c-3.50841,1.08049 -6.47262,5.09753 -6.47262,5.09753l0.58918,-23.69337l-0.00544,-1.17825l0.08402,-2.12754z"/><path d="M104.54119,202.38915c0,0 1.83705,-3.2783 4.15225,-3.5782c2.31521,-0.29989 5.51105,2.32648 5.51105,2.32648"/><path d="M104.69393,194.79989c0,0 1.04722,-1.85172 2.34571,-2.03306c1.29848,-0.18134 3.07396,1.27618 3.07396,1.27618"/></g><g><path d="M104.91521,188.24491l-1.12739,23.80816c0,0 -2.9422,-3.94677 -6.46679,-4.97326c-3.52459,-1.02649 -8.20919,0.69908 -8.20919,0.69908l13.5193,-19.46669l0.64328,-0.98717l1.23995,-1.7309z"/><path d="M95.22912,199.09257c0,0 3.33694,-1.72825 5.43568,-0.70579c2.09874,1.02245 3.32412,4.97337 3.32412,4.97337"/><path d="M99.52946,192.83739c0,0 1.89285,-0.97092 3.07715,-0.40845c1.1843,0.56247 1.86594,2.75611 1.86594,2.75611"/></g><g><g><path d="M102.70816,187.77001l-13.81273,19.42442c0,0 -0.34321,-4.91078 -2.75437,-7.67894c-2.41116,-2.76816 -7.28542,-3.84736 -7.28542,-3.84736l21.89421,-9.07562l1.07468,-0.48308l1.97861,-0.78651z"/><path d="M88.69647,191.66425c0,0 3.74171,0.34877 4.95525,2.34312c1.21354,1.99435 0.10989,5.98098 0.10989,5.98098"/><path d="M95.69485,188.72434c0,0 2.11736,0.20575 2.80999,1.31895c0.69263,1.1132 0.08093,3.32736 0.08093,3.32736"/></g><g><path d="M101.77572,186.26675l-22.21751,8.63029c0,0 2.41339,-4.29058 1.92139,-7.92849c-0.492,-3.63791 -3.97,-7.21932 -3.97,-7.21932l23.2778,4.45725l1.16327,0.18738l2.08514,0.43093z"/><path d="M87.93089,181.8156c0,0 2.93362,2.3486 2.85072,4.68167c-0.08289,2.33308 -3.19669,5.05621 -3.19669,5.05621"/><path d="M95.39292,183.20781c0,0 1.65547,1.33604 1.62194,2.6467c-0.03352,1.31065 -1.76187,2.82378 -1.76187,2.82378"/></g></g></g><g fill="none" stroke-linecap="round"><g><path d="M105.3571,181.01776l7.53724,-22.61171c0,0 1.76252,4.59642 4.87704,6.53966c3.11452,1.94324 8.09145,1.55178 8.09145,1.55178l-18.28889,15.07448l-0.88674,0.77589l-1.66263,1.3301z"/><path d="M117.62045,173.20097c0,0 -3.68042,0.75927 -5.42354,-0.79369c-1.74312,-1.55296 -1.85194,-5.6881 -1.85194,-5.6881"/><path d="M111.78588,178.05668c0,0 -2.08514,0.42163 -3.07269,-0.44074c-0.98756,-0.86237 -1.04921,-3.15865 -1.04921,-3.15865"/></g><g><path d="M106.68792,182.18314l18.72816,-14.74299c0,0 -1.05502,4.80837 0.47804,8.14396c1.53306,3.33559 5.90543,5.74504 5.90543,5.74504l-23.56466,2.53577l-1.16727,0.16054l-2.12008,0.19686z"/><path d="M121.22913,182.39659c0,0 -3.49165,-1.38938 -4.09379,-3.64494c-0.60214,-2.25556 1.58056,-5.7694 1.58056,-5.7694"/><path d="M113.68584,183.2445c0,0 -1.97349,-0.79428 -2.32423,-2.05758c-0.35074,-1.2633 0.86031,-3.21524 0.86031,-3.21524"/></g><g><g><path d="M107.77477,184.16189l23.72492,-2.28637c0,0 -3.48583,3.47599 -3.99811,7.1111c-0.51229,3.6351 1.86499,8.02504 1.86499,8.02504l-21.19881,-10.59876l-1.06896,-0.49562l-1.89033,-0.97988z"/><path d="M119.89524,192.19844c0,0 -2.18737,-3.05572 -1.47531,-5.27903c0.71205,-2.22331 4.44731,-4.0007 4.44731,-4.0007"/><path d="M113.08973,188.83611c0,0 -1.23144,-1.73468 -0.84399,-2.9872c0.38746,-1.25253 2.46118,-2.24064 2.46118,-2.24064"/></g><g><path d="M107.24965,185.85111l21.07408,11.13476c0,0 -4.82283,0.98684 -7.2494,3.7415c-2.42657,2.75467 -2.85456,7.72859 -2.85456,7.72859l-11.87952,-20.50854l-0.62038,-1.00172l-1.04019,-1.85782z"/><path d="M112.95497,199.22801c0,0 -0.14696,-3.75505 1.67023,-5.22064c1.81719,-1.46558 5.91443,-0.89647 5.91443,-0.89647"/><path d="M109.11915,192.67769c0,0 -0.07484,-2.12602 0.93746,-2.9592c1.0123,-0.83318 3.28773,-0.51835 3.28773,-0.51835"/></g></g></g><g fill="none" stroke-linecap="round"><g><path d="M101.25422,183.86874l-23.56227,-3.59428c0,0 4.23103,-2.51632 5.61808,-5.91523c1.38704,-3.3989 0.15741,-8.2374 0.15741,-8.2374l17.95711,15.46821l0.915,0.74234l1.59274,1.41303z"/><path d="M91.47134,173.10828c0,0 1.37229,3.49841 0.13737,5.47958c-1.23493,1.98118 -5.29174,2.78955 -5.29174,2.78955"/><path d="M97.24601,178.03509c0,0 0.76906,1.98346 0.08662,3.10293c-0.68244,1.11947 -2.93502,1.56957 -2.93502,1.56957"/></g><g><g><path d="M102.01751,181.41558l-17.88459,-15.75566c0,0 4.91986,0.16874 7.9235,-1.94185c3.00364,-2.11058 4.5833,-6.84638 4.5833,-6.84638l6.75234,22.71847l0.36883,1.11905l0.57673,2.04961z"/><path d="M99.59975,167.07519c0,0 -0.73554,3.68524 -2.84515,4.68506c-2.10961,0.99982 -5.96004,-0.51196 -5.96004,-0.51196"/><path d="M101.79683,174.34108c0,0 -0.42458,2.08454 -1.6037,2.65779c-1.17912,0.57325 -3.31777,-0.26513 -3.31777,-0.26513"/></g><g><path d="M103.60949,180.64433l-6.27584,-22.99377c0,0 4.01669,2.846 7.68602,2.73454c3.66933,-0.11146 7.59264,-3.19864 7.59264,-3.19864l-6.85104,22.6889l-0.3072,1.13752l-0.64519,2.02909z"/><path d="M109.47466,167.33674c0,0 -2.64061,2.67379 -4.95246,2.34901c-2.31185,-0.32478 -4.69682,-3.7046 -4.69682,-3.7046"/><path d="M107.31488,174.6138c0,0 -1.50077,1.50773 -2.80085,1.33825c-1.30008,-0.16948 -2.6255,-2.04564 -2.6255,-2.04564"/></g></g></g></g><path d="M113.04104,52.31851l-0.54314,49.42538" fill="none" stroke="#ffa000" stroke-width="3.5" stroke-linecap="round"/><path d="M132.00728,113.333l-1.62941,-55.94301c0,0 33.18676,9.8701 33.67444,26.61367c0.48768,16.74356 -32.04503,29.32935 -32.04503,29.32935z" fill="none" stroke="#e5e800" stroke-width="3.5" stroke-linecap="round"/><path d="M191.92907,76.80086c0,0 -22.37253,6.5417 -21.72544,17.38035c0.64709,10.83865 23.71524,6.58287 23.89799,19.00976c0.18275,12.42689 -23.35485,17.92349 -23.35485,17.92349" fill="none" stroke="#00f314" stroke-width="3.5" stroke-linecap="round"/><path d="M146.55868,122.56736l-20.63917,30.41562l-13.03527,-28.78621l-17.92349,26.07053l-16.29408,-27.1568" fill="none" stroke="#00f2ff" stroke-width="3.5" stroke-linecap="round"/><path d="M182.89779,189.37708l-1.62941,-42.36461c0,0 15.76761,0.14999 16.83722,9.77645c1.0696,9.62646 -14.12154,14.66467 -14.12154,14.66467c0,0 20.03474,1.28295 19.5529,9.23331c-0.48184,7.95037 -20.63917,8.69018 -20.63917,8.69018z" fill="none" stroke="#8b00ff" stroke-width="3.5" stroke-linecap="round"/><path d="M78.29573,92.41055v-44.05479" fill="none" stroke="#ff0000" stroke-width="3.5" stroke-linecap="round"/><path d="M100.2901,92.89292l-21.72544,-27.1568l24.98426,-15.20781" fill="none" stroke="#ff0000" stroke-width="3.5" stroke-linecap="round"/><g fill="none" stroke="#4e00ff" stroke-width="3.5" stroke-linecap="round"><path d="M164.13508,180.11825l-19.5529,1.62941l-1.08627,-36.39012l22.26858,-1.08627"/><path d="M163.22135,161.98497l-19.5529,2.17254"/></g><g stroke="#5f5f5f" stroke-width="1.5"><path d="M235.48954,132.19755c0,0.70399 -0.47144,1.27468 -1.053,1.27468c-0.58155,0 -1.053,-0.57069 -1.053,-1.27468c0,-0.70399 0.47144,-1.27468 1.053,-1.27468c0.58155,0 1.053,0.57069 1.053,1.27468z" fill="url(#color-3)" stroke-linecap="butt"/><path d="M217.08982,141.8962c0,0.06122 -0.17369,0.11084 -0.38795,0.11084c-0.21426,0 -0.38795,-0.04963 -0.38795,-0.11084c0,-0.06122 0.17369,-0.11084 0.38795,-0.11084c0.21426,0 0.38795,0.04963 0.38795,0.11084z" fill="url(#color-4)" stroke-linecap="butt"/><g fill="none" stroke-linecap="round"><g><path d="M237.00084,136.00267l12.14859,20.50637c0,0 -4.62759,-1.67897 -8.136,-0.59848c-3.50841,1.08049 -6.47262,5.09753 -6.47262,5.09753l0.58918,-23.69337l-0.00544,-1.17825l0.08402,-2.12754z"/><path d="M234.87452,150.38915c0,0 1.83705,-3.2783 4.15225,-3.5782c2.31521,-0.29989 5.51105,2.32648 5.51105,2.32648"/><path d="M235.02726,142.79988c0,0 1.04722,-1.85172 2.34571,-2.03306c1.29848,-0.18134 3.07396,1.27618 3.07396,1.27618"/></g><g><path d="M235.24854,136.2449l-1.12739,23.80816c0,0 -2.9422,-3.94677 -6.46679,-4.97326c-3.52459,-1.02649 -8.20919,0.69908 -8.20919,0.69908l13.5193,-19.46669l0.64328,-0.98717l1.23995,-1.7309z"/><path d="M225.56245,147.09257c0,0 3.33694,-1.72825 5.43568,-0.70579c2.09874,1.02245 3.32412,4.97337 3.32412,4.97337"/><path d="M229.86279,140.83739c0,0 1.89285,-0.97092 3.07715,-0.40845c1.1843,0.56247 1.86594,2.75611 1.86594,2.75611"/></g><g><g><path d="M233.04149,135.77001l-13.81273,19.42442c0,0 -0.34321,-4.91078 -2.75437,-7.67894c-2.41116,-2.76816 -7.28542,-3.84736 -7.28542,-3.84736l21.89421,-9.07562l1.07468,-0.48308l1.97861,-0.78651z"/><path d="M219.0298,139.66425c0,0 3.74171,0.34877 4.95525,2.34312c1.21354,1.99435 0.10989,5.98098 0.10989,5.98098"/><path d="M226.02818,136.72434c0,0 2.11736,0.20575 2.80999,1.31895c0.69263,1.1132 0.08093,3.32736 0.08093,3.32736"/></g><g><path d="M232.10905,134.26674l-22.21751,8.63029c0,0 2.41339,-4.29058 1.92139,-7.92849c-0.492,-3.63791 -3.97,-7.21932 -3.97,-7.21932l23.2778,4.45725l1.16327,0.18738l2.08514,0.43093z"/><path d="M218.26422,129.8156c0,0 2.93362,2.3486 2.85072,4.68167c-0.08289,2.33308 -3.19669,5.05621 -3.19669,5.05621"/><path d="M225.72625,131.20781c0,0 1.65547,1.33604 1.62194,2.6467c-0.03352,1.31065 -1.76187,2.82378 -1.76187,2.82378"/></g></g></g><g fill="none" stroke-linecap="round"><g><path d="M235.69043,129.01776l7.53724,-22.61171c0,0 1.76252,4.59642 4.87704,6.53966c3.11452,1.94324 8.09145,1.55178 8.09145,1.55178l-18.28889,15.07448l-0.88674,0.77589l-1.66263,1.3301z"/><path d="M247.95378,121.20097c0,0 -3.68042,0.75927 -5.42354,-0.79369c-1.74312,-1.55296 -1.85194,-5.6881 -1.85194,-5.6881"/><path d="M242.11921,126.05668c0,0 -2.08514,0.42163 -3.07269,-0.44074c-0.98756,-0.86237 -1.04921,-3.15865 -1.04921,-3.15865"/></g><g><path d="M237.02125,130.18314l18.72816,-14.74299c0,0 -1.05502,4.80837 0.47804,8.14396c1.53306,3.33559 5.90543,5.74504 5.90543,5.74504l-23.56466,2.53577l-1.16727,0.16054l-2.12008,0.19686z"/><path d="M251.56246,130.39658c0,0 -3.49165,-1.38938 -4.09379,-3.64494c-0.60214,-2.25556 1.58056,-5.7694 1.58056,-5.7694"/><path d="M244.01917,131.2445c0,0 -1.97349,-0.79428 -2.32423,-2.05758c-0.35074,-1.2633 0.86031,-3.21524 0.86031,-3.21524"/></g><g><g><path d="M238.1081,132.16189l23.72492,-2.28637c0,0 -3.48583,3.47599 -3.99811,7.1111c-0.51229,3.6351 1.86499,8.02504 1.86499,8.02504l-21.19881,-10.59876l-1.06896,-0.49562l-1.89033,-0.97988z"/><path d="M250.22857,140.19843c0,0 -2.18737,-3.05572 -1.47531,-5.27903c0.71205,-2.22331 4.44731,-4.0007 4.44731,-4.0007"/><path d="M243.42306,136.83611c0,0 -1.23144,-1.73468 -0.84399,-2.9872c0.38746,-1.25253 2.46118,-2.24064 2.46118,-2.24064"/></g><g><path d="M237.58298,133.8511l21.07408,11.13476c0,0 -4.82283,0.98684 -7.2494,3.7415c-2.42657,2.75467 -2.85456,7.72859 -2.85456,7.72859l-11.87952,-20.50854l-0.62038,-1.00172l-1.04019,-1.85782z"/><path d="M243.2883,147.22801c0,0 -0.14696,-3.75505 1.67023,-5.22064c1.81719,-1.46558 5.91443,-0.89647 5.91443,-0.89647"/><path d="M239.45248,140.67769c0,0 -0.07484,-2.12602 0.93746,-2.9592c1.0123,-0.83318 3.28773,-0.51835 3.28773,-0.51835"/></g></g></g><g fill="none" stroke-linecap="round"><g><path d="M231.58755,131.86873l-23.56227,-3.59428c0,0 4.23103,-2.51632 5.61808,-5.91523c1.38704,-3.3989 0.15741,-8.2374 0.15741,-8.2374l17.95711,15.46821l0.915,0.74234l1.59274,1.41303z"/><path d="M221.80467,121.10828c0,0 1.37229,3.49841 0.13737,5.47958c-1.23493,1.98118 -5.29174,2.78955 -5.29174,2.78955"/><path d="M227.57934,126.03509c0,0 0.76906,1.98346 0.08662,3.10293c-0.68244,1.11947 -2.93502,1.56957 -2.93502,1.56957"/></g><g><g><path d="M232.35084,129.41557l-17.88459,-15.75566c0,0 4.91986,0.16874 7.9235,-1.94185c3.00364,-2.11058 4.5833,-6.84638 4.5833,-6.84638l6.75234,22.71847l0.36883,1.11905l0.57673,2.04961z"/><path d="M229.93308,115.07519c0,0 -0.73554,3.68524 -2.84515,4.68506c-2.10961,0.99982 -5.96004,-0.51196 -5.96004,-0.51196"/><path d="M232.13016,122.34108c0,0 -0.42458,2.08454 -1.6037,2.65779c-1.17912,0.57325 -3.31777,-0.26513 -3.31777,-0.26513"/></g><g><path d="M233.94282,128.64433l-6.27584,-22.99377c0,0 4.01669,2.846 7.68602,2.73454c3.66933,-0.11146 7.59264,-3.19864 7.59264,-3.19864l-6.85104,22.6889l-0.3072,1.13752l-0.64519,2.02909z"/><path d="M239.80799,115.33674c0,0 -2.64061,2.67379 -4.95246,2.34901c-2.31185,-0.32478 -4.69682,-3.7046 -4.69682,-3.7046"/><path d="M237.64821,122.6138c0,0 -1.50077,1.50773 -2.80085,1.33825c-1.30008,-0.16948 -2.6255,-2.04564 -2.6255,-2.04564"/></g></g></g></g><path d="M13.41667,100.26667c0,0.27614 -0.14924,0.5 -0.33333,0.5c-0.18409,0 -0.33333,-0.22386 -0.33333,-0.5c0,-0.27614 0.14924,-0.5 0.33333,-0.5c0.18409,0 0.33333,0.22386 0.33333,0.5z" fill="#ff0000" stroke="none" stroke-width="0" stroke-linecap="butt"/><path d="M107.08334,32.99899c0,1.89673 -1.26853,3.43435 -2.83334,3.43435c-1.56481,0 -2.83334,-1.53761 -2.83334,-3.43435c0,-1.89673 1.26853,-3.43434 2.83334,-3.43434c1.56481,0 2.83334,1.5376 2.83334,3.43434z" fill="#ff0000" stroke="none" stroke-width="0" stroke-linecap="butt"/><path d="M104.15635,42.79605l-3.14603,7.60791" fill="none" stroke="#ff0000" stroke-width="2" stroke-linecap="round"/><path d="M106.48968,43.46272l-3.14604,7.6079" fill="none" stroke="#ff0000" stroke-width="2" stroke-linecap="round"/><path d="M111.10512,34.9965l-6.3769,5.20701" fill="none" stroke="#ff0000" stroke-width="2" stroke-linecap="round"/><path d="M99.04407,34.16509l5.41187,6.20317" fill="none" stroke="#ff0000" stroke-width="2" stroke-linecap="round"/><path d="M108.41667,99.40303c0,1.67359 -1.11929,3.0303 -2.5,3.0303c-1.38071,0 -2.5,-1.35671 -2.5,-3.0303c0,-1.67359 1.11929,-3.0303 2.5,-3.0303c1.38071,0 2.5,1.35671 2.5,3.0303z" data-paper-data="{&quot;index&quot;:null}" fill="#ffa000" stroke="none" stroke-width="0" stroke-linecap="butt"/><path d="M102.82902,110.79593c0,0 1.57482,-9.46312 3.43211,-9.25843c1.85729,0.20468 3.43698,10.01545 3.43698,10.01545z" data-paper-data="{&quot;index&quot;:null}" fill="#ffa000" stroke="none" stroke-width="0" stroke-linecap="butt"/><path d="M102.67698,116.40396l3.14603,-7.60791" data-paper-data="{&quot;index&quot;:null}" fill="#ffa000" stroke="#ffa000" stroke-width="2" stroke-linecap="round"/><path d="M105.01031,117.40396l3.14603,-7.60791" data-paper-data="{&quot;index&quot;:null}" fill="#ffa000" stroke="#ffa000" stroke-width="2" stroke-linecap="round"/><path d="M112.77178,100.9965l-6.3769,5.20701" data-paper-data="{&quot;index&quot;:null}" fill="#ffa000" stroke="#ffa000" stroke-width="2" stroke-linecap="round"/><path d="M104.45594,104.16509l-5.41187,6.20316" data-paper-data="{&quot;index&quot;:null}" fill="#ffa000" stroke="#ffa000" stroke-width="2" stroke-linecap="round"/><path d="M101.49569,44.4626c0,0 1.42197,-9.46311 3.09901,-9.25843c1.67704,0.20468 3.10341,10.01545 3.10341,10.01545z" fill="#ff0000" stroke="none" stroke-width="0" stroke-linecap="butt"/><path d="M101.78063,45.6v-8h4.48172v8z" fill="#ff0000" stroke="none" stroke-width="0" stroke-linecap="butt"/><path d="M104.28471,100.07157c0,0 -2.5556,0.2281 -2.78128,0.94878c-0.22568,0.72068 2.34176,0.64965 2.02358,1.47084c-0.31818,0.8212 -2.96922,0.96979 -2.96922,0.96979" fill="none" stroke="#ffa000" stroke-width="3.5" stroke-linecap="round"/><path d="M140.90133,76.68613c1.25057,-0.94057 3.1886,-0.47423 4.32869,1.04162c1.14009,1.51584 1.05053,3.50718 -0.20004,4.44776c-1.25057,0.94057 -3.1886,0.47422 -4.32869,-1.04162c-1.14009,-1.51584 -1.05053,-3.50717 0.20005,-4.44775z" data-paper-data="{&quot;index&quot;:null}" fill="#e5e800" stroke="none" stroke-width="0" stroke-linecap="butt"/><path d="M151.06176,81.84346l8.15785,1.10784" data-paper-data="{&quot;index&quot;:null}" fill="none" stroke="#e5e800" stroke-width="2" stroke-linecap="round"/><path d="M150.77967,83.84345l7.99579,1.96088" data-paper-data="{&quot;index&quot;:null}" fill="none" stroke="#e5e800" stroke-width="2" stroke-linecap="round"/><path d="M140.55766,83.97336l8.19793,-0.7561" data-paper-data="{&quot;index&quot;:null}" fill="none" stroke="#e5e800" stroke-width="2" stroke-linecap="round"/><path d="M151.26235,85.55962c0,0 -8.39178,-4.08727 -7.93189,-5.01973c0.45989,-0.93246 9.63276,1.5711 9.63276,1.5711z" data-paper-data="{&quot;index&quot;:null}" fill="#e5e800" stroke="none" stroke-width="0" stroke-linecap="butt"/><path d="M152.4619,85.63567l-7.66465,-2.292l1.28402,-4.29385l7.66465,2.29201z" data-paper-data="{&quot;index&quot;:null}" fill="#e5e800" stroke="none" stroke-width="0" stroke-linecap="butt"/><path d="M137.55766,80.30669l8.19793,-0.75611" data-paper-data="{&quot;index&quot;:null}" fill="none" stroke="#e5e800" stroke-width="2" stroke-linecap="round"/><path d="M204.85636,84.6609c-0.80989,1.46457 -2.44594,2.1102 -3.65421,1.44204c-1.20827,-0.66816 -1.53123,-2.39709 -0.72134,-3.86166c0.80989,-1.46457 2.44594,-2.1102 3.65421,-1.44204c1.20827,0.66816 1.53123,2.39708 0.72134,3.86165z" data-paper-data="{&quot;index&quot;:null}" fill="#00f314" stroke="none" stroke-width="0" stroke-linecap="butt"/><path d="M194.45326,91.92694c0,0 5.95756,-7.51918 7.48385,-6.44127c1.52629,1.07791 -1.83898,10.42785 -1.83898,10.42785z" data-paper-data="{&quot;index&quot;:null}" fill="#00f314" stroke="none" stroke-width="0" stroke-linecap="butt"/><path d="M191.60635,96.76101l6.43478,-5.13531" data-paper-data="{&quot;index&quot;:null}" fill="#ffa000" stroke="#00f314" stroke-width="2" stroke-linecap="round"/><path d="M197.9594,101.41687l0.92852,-8.18019" data-paper-data="{&quot;index&quot;:null}" fill="#ffa000" stroke="#00f314" stroke-width="2" stroke-linecap="round"/><path d="M207.89645,88.1629l-8.10028,1.47077" data-paper-data="{&quot;index&quot;:null}" fill="#ffa000" stroke="#00f314" stroke-width="2" stroke-linecap="round"/><path d="M197.50481,90.45936l-1.73412,-8.04739" data-paper-data="{&quot;index&quot;:null}" fill="#ffa000" stroke="#00f314" stroke-width="2" stroke-linecap="round"/><path d="M207.38807,82.74944c-0.068,0.00632 -0.13547,0.01076 -0.20118,0.01382c0.03815,0.05238 0.08693,0.06939 0.155,0.02907c0.01938,-0.01148 0.03445,-0.026 0.04618,-0.04289zM208.24169,82.49305c-0.03234,1.56696 -0.95994,0.95239 -1.96525,0.27362h-0.77643c-0.16242,0 -0.30675,-0.07745 -0.39809,-0.19743c-0.86403,0.20109 -1.76694,0.39019 -2.11047,0.5051c0,0 -0.47434,0.15811 -0.63245,-0.31623c-0.15812,-0.47434 0.31623,-0.63246 0.31623,-0.63246c0.79499,-0.264 4.91687,-1.93014 5.58344,-0.78852c0.35144,0.60191 0.25904,0.9525 -0.01698,1.15591z" fill="#00f314" stroke="none" stroke-width="0.5" stroke-linecap="butt"/><path d="M107.35333,132.68066c0,0 -0.63188,-4.36473 -5.98703,-4.71051c-5.35514,-0.34578 -5.91656,4.04812 -11.99255,3.54958c-6.07599,-0.49854 -6.06556,-5.03126 -6.06556,-5.03126" fill="none" stroke="#00f2ff" stroke-width="2.5" stroke-linecap="round"/><path d="M88.07499,121.15989c-1.83266,-0.48881 -2.99143,-2.11075 -2.58816,-3.6227c0.40327,-1.51195 2.21586,-2.34137 4.04853,-1.85256c1.83266,0.48881 2.99142,2.11075 2.58815,3.6227c-0.40327,1.51195 -2.21585,2.34137 -4.04851,1.85256z" data-paper-data="{&quot;index&quot;:null}" fill="#00f2ff" stroke="none" stroke-width="0" stroke-linecap="butt"/><path d="M84.86717,111.82067l-4.08478,-7.14789" data-paper-data="{&quot;index&quot;:null}" fill="none" stroke="#00f2ff" stroke-width="2" stroke-linecap="round"/><path d="M78.30382,106.15392l4.8149,6.67791" data-paper-data="{&quot;index&quot;:null}" fill="none" stroke="#00f2ff" stroke-width="2" stroke-linecap="round"/><path d="M89.14296,116.94401l1.16569,8.14978" data-paper-data="{&quot;index&quot;:null}" fill="none" stroke="#00f2ff" stroke-width="2" stroke-linecap="round"/><path d="M85.23979,110.15811c0,0 5.7592,7.56577 5.0671,8.34163c-0.6921,0.77586 -7.6268,-5.47215 -7.6268,-5.47215z" data-paper-data="{&quot;index&quot;:null}" fill="#00f2ff" stroke="none" stroke-width="0" stroke-linecap="butt"/><path d="M84.32618,109.14418l4.99776,6.24679l-3.49955,2.79982l-4.99776,-6.2468z" data-paper-data="{&quot;index&quot;:null}" fill="#00f2ff" stroke="none" stroke-width="0" stroke-linecap="butt"/><path d="M86.60145,125.96108l-0.56,-8.21366" data-paper-data="{&quot;index&quot;:null}" fill="none" stroke="#00f2ff" stroke-width="2" stroke-linecap="round"/><path d="M147.78587,154.3007c0.45358,-1.15256 1.95381,-1.64119 3.35084,-1.0914c1.39704,0.5498 2.16186,1.92983 1.70828,3.08239c-0.45358,1.15256 -1.95381,1.64119 -3.35085,1.09139c-1.39704,-0.5498 -2.16186,-1.92983 -1.70828,-3.08238z" data-paper-data="{&quot;index&quot;:null}" fill="#4e00ff" stroke="none" stroke-width="0" stroke-linecap="butt"/><path d="M159.21539,162.44418c0,0 -7.67064,-4.54162 -7.23136,-6.15925c0.43929,-1.61763 8.85602,0.17655 8.85602,0.17655z" data-paper-data="{&quot;index&quot;:null}" fill="#4e00ff" stroke="none" stroke-width="0" stroke-linecap="butt"/><path d="M158.18707,158.30375l7.38426,-0.12687" data-paper-data="{&quot;index&quot;:null}" fill="#ffa000" stroke="#4e00ff" stroke-width="2" stroke-linecap="round"/><path d="M165.52768,160.10201l-7.36023,-0.60863" data-paper-data="{&quot;index&quot;:null}" fill="#ffa000" stroke="#4e00ff" stroke-width="2" stroke-linecap="round"/><path d="M158.6041,160.34595l-6.64621,-3.22045" data-paper-data="{&quot;index&quot;:null}" fill="#ffa000" stroke="#4e00ff" stroke-width="2" stroke-linecap="round"/><path d="M160.49687,154.95415l-7.27803,1.25119" data-paper-data="{&quot;index&quot;:null}" fill="#ffa000" stroke="#4e00ff" stroke-width="2" stroke-linecap="round"/><path d="M146.7076,157.51162c0.07011,-0.01103 0.09411,-0.05066 0.09056,-0.10869c-0.04718,0.03544 -0.09637,0.07093 -0.147,0.10542c0.01777,0.00497 0.03648,0.0064 0.05644,0.00326zM145.24202,157.0294c-0.19157,-1.17033 3.61073,-2.37405 4.3113,-2.64587c0,0 0.41835,-0.16177 0.58012,0.25657c0.16177,0.41835 -0.25657,0.58012 -0.25657,0.58012c-0.30321,0.11688 -1.0356,0.50217 -1.74795,0.85694c0.00542,0.13516 -0.05012,0.2712 -0.16242,0.36402l-0.53686,0.44375c-0.30718,1.04389 -0.59732,1.99898 -1.51524,0.934c-0.3071,0.0171 -0.57137,-0.17251 -0.67237,-0.78955z" data-paper-data="{&quot;index&quot;:null}" fill="#4e00ff" stroke="none" stroke-width="0.5" stroke-linecap="butt"/><path d="M192.91667,157.76177c0,2.43655 -1.86548,4.41176 -4.16667,4.41176c-2.30119,0 -4.16667,-1.97521 -4.16667,-4.41176c0,-2.43655 1.86548,-4.41176 4.16667,-4.41176c2.30119,0 4.16667,1.97521 4.16667,4.41176z" fill="none" stroke="#8b00ff" stroke-width="0.5" stroke-linecap="butt"/><path d="M191.17328,157.45224c0,2.3445 -1.10211,4.2451 -2.46164,4.2451c-1.35953,0 -2.46164,-1.9006 -2.46164,-4.2451c0,-2.3445 1.10211,-4.2451 2.46164,-4.2451c1.35953,0 2.46164,1.9006 2.46164,4.2451z" fill="none" stroke="#8b00ff" stroke-width="0.5" stroke-linecap="butt"/><path d="M191.94499,155.0029c-0.26768,0.82111 -1.836,1.30131 -3.65679,1.08558c-1.2306,-0.1458 -2.28085,-0.57446 -2.85879,-1.10345" fill="none" stroke="#8b00ff" stroke-width="0.5" stroke-linecap="butt"/><path d="M188.73806,159.49045c1.95298,-0.01915 3.55364,0.52386 3.57521,1.21284c0.02157,0.68898 -1.54414,1.26303 -3.49711,1.28218c-1.95298,0.01915 -3.55365,-0.52386 -3.57522,-1.21284c-0.02157,-0.68898 1.54414,-1.26303 3.49712,-1.28218z" fill="none" stroke="#8b00ff" stroke-width="0.5" stroke-linecap="butt"/><path d="M188.66667,153.91191l0.14286,8.14286" fill="none" stroke="#8b00ff" stroke-width="0.5" stroke-linecap="round"/><path d="M184.52381,157.62619l8.14286,0.28571" fill="none" stroke="#8b00ff" stroke-width="0.5" stroke-linecap="round"/><path d="M157.67857,149.65h3l-2.71429,2l3,-0.28571" fill="none" stroke="#4e00ff" stroke-width="0.5" stroke-linecap="round"/><path d="M163.25,147.93571h2.21739l-2.00621,1.47826l2.21739,-0.21118" fill="none" stroke="#4e00ff" stroke-width="0.5" stroke-linecap="round"/><path d="M168.28061,145.07857h1.92857l-1.7449,1.28571l1.92857,-0.18367" fill="none" stroke="#4e00ff" stroke-width="0.5" stroke-linecap="round"/></g></g></svg>